<svg width="164" height="88" viewBox="0 0 164 88" fill="none" xmlns="http://www.w3.org/2000/svg">
<path d="M139.694 0H24.3064C10.8823 0 0 10.8823 0 24.3064V258.383C0 271.807 10.8823 282.689 24.3064 282.689H139.694C153.118 282.689 164 271.807 164 258.383V24.3064C164 10.8823 153.118 0 139.694 0Z" fill="#298A7C"/>
<path d="M140.281 11.0386H23.2833C14.3884 11.0386 7.17761 18.2494 7.17761 27.1443V258.424C7.17761 267.319 14.3884 274.529 23.2833 274.529H140.281C149.176 274.529 156.386 267.319 156.386 258.424V27.1443C156.386 18.2494 149.176 11.0386 140.281 11.0386Z" fill="white"/>
<path d="M114.732 4.99854H46.1243C42.4442 4.99854 39.4609 7.98181 39.4609 11.6619V11.6664C39.4609 15.3465 42.4442 18.3298 46.1243 18.3298H114.732C118.412 18.3298 121.395 15.3465 121.395 11.6664V11.6619C121.395 7.98181 118.412 4.99854 114.732 4.99854Z" fill="#298A7C"/>
<path d="M96.5237 6.14941H65.3129C63.9163 6.14941 62.7841 7.28163 62.7841 8.6783V8.68285C62.7841 10.0795 63.9163 11.2117 65.3129 11.2117H96.5237C97.9204 11.2117 99.0526 10.0795 99.0526 8.68285V8.6783C99.0526 7.28163 97.9204 6.14941 96.5237 6.14941Z" fill="white"/>
<path d="M139.333 40.603H26.9115C23.2415 40.603 20.2664 43.5782 20.2664 47.2482V71.591C20.2664 75.261 23.2415 78.2361 26.9115 78.2361H139.333C143.003 78.2361 145.978 75.261 145.978 71.591V47.2482C145.978 43.5782 143.003 40.603 139.333 40.603Z" fill="#E5F4F2"/>
<path d="M39.426 72.7057C46.9067 72.7057 52.971 66.6414 52.971 59.1607C52.971 51.68 46.9067 45.6157 39.426 45.6157C31.9453 45.6157 25.881 51.68 25.881 59.1607C25.881 66.6414 31.9453 72.7057 39.426 72.7057Z" fill="#CAD3D1"/>
<path d="M133.017 46.8022H62.8678C61.2803 46.8022 59.9933 48.0892 59.9933 49.6768C59.9933 51.2644 61.2803 52.5514 62.8678 52.5514H133.017C134.605 52.5514 135.892 51.2644 135.892 49.6768C135.892 48.0892 134.605 46.8022 133.017 46.8022Z" fill="#CAD3D1"/>
<path d="M116.916 56.354H62.8678C61.2803 56.354 59.9933 57.641 59.9933 59.2286C59.9933 60.8161 61.2803 62.1031 62.8678 62.1031H116.916C118.504 62.1031 119.79 60.8161 119.79 59.2286C119.79 57.641 118.504 56.354 116.916 56.354Z" fill="#CAD3D1"/>
<path d="M75.585 66.9521H62.8678C61.2803 66.9521 59.9933 68.2391 59.9933 69.8267C59.9933 71.4143 61.2803 72.7013 62.8678 72.7013H75.585C77.1726 72.7013 78.4596 71.4143 78.4596 69.8267C78.4596 68.2391 77.1726 66.9521 75.585 66.9521Z" fill="#CAD3D1"/>
<g clip-path="url(#clip0_90_1527)">
<path d="M51.056 59.2289C51.056 65.6742 45.8311 70.899 39.3859 70.899C32.9407 70.899 27.7158 65.6742 27.7158 59.2289C27.7158 52.7837 32.9407 47.5588 39.3859 47.5588C45.8311 47.5588 51.056 52.7837 51.056 59.2289Z" fill="white"/>
<path d="M39.3859 44.4468C31.2195 44.4468 24.6038 51.0635 24.6038 59.2289C24.6038 67.3944 31.2204 74.0111 39.3859 74.0111C47.5523 74.0111 54.1681 67.3944 54.1681 59.2289C54.1681 51.0635 47.5514 44.4468 39.3859 44.4468ZM46.6463 54.574L44.2202 66.0068C44.0409 66.8174 43.5583 67.0139 42.885 66.6324L39.1894 63.9087L37.407 65.6253C37.2106 65.8218 37.0437 65.9887 36.6622 65.9887L36.9244 62.2273L43.7729 56.0398C44.0714 55.7775 43.7071 55.6288 43.3132 55.891L34.8492 61.2193L31.2014 60.0806C30.4089 59.8307 30.3907 59.2881 31.3683 58.9066L45.6202 53.4105C46.282 53.1721 46.86 53.5717 46.6454 54.573L46.6463 54.574Z" fill="#36ACF2"/>
</g>
<defs>
<clipPath id="clip0_90_1527">
<rect width="29.5643" height="29.5643" fill="white" transform="translate(24.6036 44.4468)"/>
</clipPath>
</defs>
</svg>
